# Exported from Figuro at https://www.figuro.io


v -509.29712297212734 0 -397.8325755291951
v -221.52281327287432 0 -397.8325755291951
v -221.52281327287432 256 -397.8325755291951
v -509.29712297212734 256 -397.8325755291951
v -221.52281327287432 0 -157.47265365410703
v -221.52281327287432 256 -157.47265365410703
v -509.29712297212734 0 -157.47265365410703
v -509.29712297212734 256 -157.47265365410703
# 8 vertices
vt 1.9894418866098724 1
vt 0.8653234893471653 1
vt 0.8653234893471653 2
vt 1.9894418866098724 2
vt 1.5540334981609183 1
vt 0.6151275533363556 1
vt 0.6151275533363556 2
vt 1.5540334981609183 2
vt -0.8653234893471653 1
vt -1.9894418866098724 1
vt -1.9894418866098724 2
vt -0.8653234893471653 2
vt -0.6151275533363556 1
vt -1.5540334981609183 1
vt -1.5540334981609183 2
vt -0.6151275533363556 2
vt -1.9894418866098724 0.3848724466636444
vt -0.8653234893471653 0.3848724466636444
vt -0.8653234893471653 -0.5540334981609183
vt -1.9894418866098724 -0.5540334981609183
vt -1.9894418866098724 2.5540334981609183
vt -0.8653234893471653 2.5540334981609183
vt -0.8653234893471653 1.6151275533363556
vt -1.9894418866098724 1.6151275533363556
# 24 uvs
vn -0.3333333333333333 -0.3333333333333333 -0.3333333333333333
vn 0.3333333333333333 -0.3333333333333333 -0.3333333333333333
vn 0.3333333333333333 0.3333333333333333 -0.3333333333333333
vn -0.3333333333333333 0.3333333333333333 -0.3333333333333333
vn 0.3333333333333333 -0.3333333333333333 0.3333333333333333
vn 0.3333333333333333 0.3333333333333333 0.3333333333333333
vn -0.3333333333333333 -0.3333333333333333 0.3333333333333333
vn -0.3333333333333333 0.3333333333333333 0.3333333333333333

v 125.78675914961674 0 -372.43984227160104
v 392.8770698894075 0 -372.43984227160104
v 392.8770698894075 256 -372.43984227160104
v 125.78675914961674 256 -372.43984227160104
v 392.8770698894075 0 -127.32024473061415
v 392.8770698894075 256 -127.32024473061415
v 125.78675914961674 0 -127.32024473061415
v 125.78675914961674 256 -127.32024473061415
# 8 vertices
vt -0.4913545279281904 1
vt -1.534676054255498 1
vt -1.534676054255498 2
vt -0.4913545279281904 2
vt 1.4548431338734416 1
vt 0.4973447059789615 1
vt 0.4973447059789615 2
vt 1.4548431338734416 2
vt 1.534676054255498 1
vt 0.4913545279281904 1
vt 0.4913545279281904 2
vt 1.534676054255498 2
vt -0.4973447059789615 1
vt -1.4548431338734416 1
vt -1.4548431338734416 2
vt -0.4973447059789615 2
vt 0.4913545279281904 0.5026552940210385
vt 1.534676054255498 0.5026552940210385
vt 1.534676054255498 -0.45484313387344155
vt 0.4913545279281904 -0.45484313387344155
vt 0.4913545279281904 2.4548431338734416
vt 1.534676054255498 2.4548431338734416
vt 1.534676054255498 1.4973447059789615
vt 0.4913545279281904 1.4973447059789615
# 24 uvs
vn -0.3333333333333333 -0.3333333333333333 -0.3333333333333333
vn 0.3333333333333333 -0.3333333333333333 -0.3333333333333333
vn 0.3333333333333333 0.3333333333333333 -0.3333333333333333
vn -0.3333333333333333 0.3333333333333333 -0.3333333333333333
vn 0.3333333333333333 -0.3333333333333333 0.3333333333333333
vn 0.3333333333333333 0.3333333333333333 0.3333333333333333
vn -0.3333333333333333 -0.3333333333333333 0.3333333333333333
vn -0.3333333333333333 0.3333333333333333 0.3333333333333333

v -503.9215975910191 0 134.7140155406321
v -247.07326711267064 0 134.7140155406321
v -247.07326711267064 256 134.7140155406321
v -503.9215975910191 256 134.7140155406321
v -247.07326711267064 0 381.83493188332477
v -247.07326711267064 256 381.83493188332477
v -503.9215975910191 0 381.83493188332477
v -503.9215975910191 256 381.83493188332477
# 8 vertices
vt 1.9684437405899184 1
vt 0.9651299496588697 1
vt 0.9651299496588697 2
vt 1.9684437405899184 2
vt -0.5262266232055941 1
vt -1.4915427026692374 1
vt -1.4915427026692374 2
vt -0.5262266232055941 2
vt -0.9651299496588697 1
vt -1.9684437405899184 1
vt -1.9684437405899184 2
vt -0.9651299496588697 2
vt 1.4915427026692374 1
vt 0.5262266232055941 1
vt 0.5262266232055941 2
vt 1.4915427026692374 2
vt -1.9684437405899184 2.4915427026692374
vt -0.9651299496588697 2.4915427026692374
vt -0.9651299496588697 1.526226623205594
vt -1.9684437405899184 1.526226623205594
vt -1.9684437405899184 0.4737733767944059
vt -0.9651299496588697 0.4737733767944059
vt -0.9651299496588697 -0.4915427026692374
vt -1.9684437405899184 -0.4915427026692374
# 24 uvs
vn -0.3333333333333333 -0.3333333333333333 -0.3333333333333333
vn 0.3333333333333333 -0.3333333333333333 -0.3333333333333333
vn 0.3333333333333333 0.3333333333333333 -0.3333333333333333
vn -0.3333333333333333 0.3333333333333333 -0.3333333333333333
vn 0.3333333333333333 -0.3333333333333333 0.3333333333333333
vn 0.3333333333333333 0.3333333333333333 0.3333333333333333
vn -0.3333333333333333 -0.3333333333333333 0.3333333333333333
vn -0.3333333333333333 0.3333333333333333 0.3333333333333333
# 8 normals
usemtl c19a6b
f 20/52/20 19/51/19 18/50/18 17/49/17 
f 19/56/19 22/55/22 21/54/21 18/53/18 
f 22/60/22 24/59/24 23/58/23 21/57/21 
f 24/64/24 20/63/20 17/62/17 23/61/23 
f 17/68/17 18/67/18 21/66/21 23/65/23 
f 24/72/24 22/71/22 19/70/19 20/69/20 
# 6 polygons
o cube7
v 126.28698183123669 0 129.6678188057158
v 383.636985667787 0 129.6678188057158
v 383.636985667787 256 129.6678188057158
v 126.28698183123669 256 129.6678188057158
v 383.636985667787 0 383.4386995501037
v 383.636985667787 256 383.4386995501037
v 126.28698183123669 0 383.4386995501037
v 126.28698183123669 256 383.4386995501037
# 8 vertices
vt -0.4933085227782683 1
vt -1.4985819752647929 1
vt -1.4985819752647929 2
vt -0.4933085227782683 2
vt -0.5065149172098273 1
vt -1.4978074201175926 1
vt -1.4978074201175926 2
vt -0.5065149172098273 2
vt 1.4985819752647929 1
vt 0.4933085227782683 1
vt 0.4933085227782683 2
vt 1.4985819752647929 2
vt 1.4978074201175926 1
vt 0.5065149172098273 1
vt 0.5065149172098273 2
vt 1.4978074201175926 2
vt 0.4933085227782683 2.4978074201175926
vt 1.4985819752647929 2.4978074201175926
vt 1.4985819752647929 1.5065149172098273
vt 0.4933085227782683 1.5065149172098273
vt 0.4933085227782683 0.49348508279017267
vt 1.4985819752647929 0.49348508279017267
vt 1.4985819752647929 -0.4978074201175926
vt 0.4933085227782683 -0.4978074201175926
# 24 uvs
vn -0.3333333333333333 -0.3333333333333333 -0.3333333333333333
vn 0.3333333333333333 -0.3333333333333333 -0.3333333333333333
vn 0.3333333333333333 0.3333333333333333 -0.3333333333333333
vn -0.3333333333333333 0.3333333333333333 -0.3333333333333333
vn 0.3333333333333333 -0.3333333333333333 0.3333333333333333
vn 0.3333333333333333 0.3333333333333333 0.3333333333333333
vn -0.3333333333333333 -0.3333333333333333 0.3333333333333333
vn -0.3333333333333333 0.3333333333333333 0.3333333333333333
# 8 normals
usemtl 9fc5e8
f 28/76/28 27/75/27 26/74/26 25/73/25 
f 27/80/27 30/79/30 29/78/29 26/77/26 
f 30/84/30 32/83/32 31/82/31 29/81/29 
f 32/88/32 28/87/28 25/86/25 31/85/31 
f 25/92/25 26/91/26 29/90/29 31/89/31 
f 32/96/32 30/95/30 27/94/27 28/93/28 
# 6 polygons
o cube8
v -273.50276703743003 184.47079778998983 -299.6599768753635
v 221.22293824585597 184.47079778998983 -299.6599768753635
v 221.22293824585597 184.47079778998983 240.71466956714931
v -273.50276703743003 184.47079778998983 240.71466956714931
v 221.22293824585597 -13.947827916075752 -299.6599768753635
v 221.22293824585597 -13.947827916075752 240.71466956714931
v -273.50276703743003 -13.947827916075752 -299.6599768753635
v -273.50276703743003 -13.947827916075752 240.71466956714931
# 8 vertices
vt -1.068370183739961 2.170546784669389
vt 0.8641521025228749 2.170546784669389
vt 0.8641521025228749 0.05970832200332299
vt -1.068370183739961 0.05970832200332299
vt 1.1705467846693887 1.7205890538671478
vt 1.1705467846693887 0.945516297202829
vt -0.940291677996677 0.945516297202829
vt -0.940291677996677 1.7205890538671478
vt 0.8641521025228749 -0.17054678466938866
vt -1.068370183739961 -0.17054678466938866
vt -1.068370183739961 1.940291677996677
vt 0.8641521025228749 1.940291677996677
vt -1.1705467846693887 0.945516297202829
vt -1.1705467846693887 1.7205890538671478
vt 0.940291677996677 1.7205890538671478
vt 0.940291677996677 0.945516297202829
vt 1.068370183739961 0.945516297202829
vt -0.8641521025228749 0.945516297202829
vt -0.8641521025228749 1.7205890538671478
vt 1.068370183739961 1.7205890538671478
vt -1.068370183739961 1.7205890538671478
vt 0.8641521025228749 1.7205890538671478
vt 0.8641521025228749 0.945516297202829
vt -1.068370183739961 0.945516297202829
# 24 uvs
vn -0.3333333333333333 0.3333333333333333 -0.3333333333333333
vn 0.3333333333333333 0.3333333333333333 -0.3333333333333333
vn 0.3333333333333333 0.3333333333333333 0.3333333333333333
vn -0.3333333333333333 0.3333333333333333 0.3333333333333333
vn 0.3333333333333333 -0.3333333333333333 -0.3333333333333333
vn 0.3333333333333333 -0.3333333333333333 0.3333333333333333
vn -0.3333333333333333 -0.3333333333333333 -0.3333333333333333
vn -0.3333333333333333 -0.3333333333333333 0.3333333333333333
# 8 normals
usemtl ccccff
f 36/100/36 35/99/35 34/98/34 33/97/33 
f 35/104/35 38/103/38 37/102/37 34/101/34 
f 38/108/38 40/107/40 39/106/39 37/105/37 
f 40/112/40 36/111/36 33/110/33 39/109/39 
f 33/116/33 34/115/34 37/114/37 39/113/39 
f 40/120/40 38/119/38 35/118/35 36/117/36 
# 6 polygons